<svg xmlns="http://www.w3.org/2000/svg" viewBox="0 0 432 432"><defs><style>.cls-1{fill:#4d4d4d;}.cls-2{fill:#fff;}.cls-3{stroke:#ff4e00;stroke-linecap:round;stroke-miterlimit:10;stroke-width:4px;}</style></defs><title>clock_red</title><g id="Layer_1" data-name="Layer 1"><rect class="cls-1" x="198" y="126" width="36" height="126" rx="3" ry="3"/><rect class="cls-1" x="206" y="53" width="20" height="218" rx="7" ry="7"/><path class="cls-2" d="M363,342a6,6,0,0,1,6,6V552a6,6,0,0,1-6,6h-6a6,6,0,0,1-6-6V348a6,6,0,0,1,6-6h6m0-2h-6a8,8,0,0,0-8,8V552a8,8,0,0,0,8,8h6a8,8,0,0,0,8-8V348a8,8,0,0,0-8-8Z" transform="translate(-144 -288)"/><line class="cls-3" x1="216" y1="279" x2="216" y2="45"/></g><g id="Layer_2" data-name="Layer 2"><rect class="cls-1" y="207" width="36" height="18" rx="6" ry="6"/><rect class="cls-1" x="179.53" y="387" width="18" height="36" rx="6" ry="6" transform="translate(-400.48 77.77) rotate(-60)"/><rect class="cls-1" x="252" y="314.53" width="18" height="36" rx="6" ry="6" transform="translate(-275.3 -112.95) rotate(-30)"/><rect class="cls-1" x="207" width="18" height="36" rx="6" ry="6"/><rect class="cls-1" x="441" y="323.53" width="36" height="18" rx="6" ry="6" transform="translate(-202.48 275.77) rotate(-60)"/><rect class="cls-1" x="513.47" y="396" width="36" height="18" rx="6" ry="6" transform="matrix(0.87, -0.5, 0.5, 0.87, -275.3, 32)"/><rect class="cls-1" x="396" y="207" width="36" height="18" rx="6" ry="6"/><rect class="cls-1" x="522.47" y="585" width="18" height="36" rx="6" ry="6" transform="translate(-400.48 473.77) rotate(-60)"/><rect class="cls-1" x="450" y="657.47" width="18" height="36" rx="6" ry="6" transform="matrix(0.87, -0.5, 0.5, 0.87, -420.24, 32)"/><rect class="cls-1" x="207" y="396" width="18" height="36" rx="6" ry="6"/><rect class="cls-1" x="243" y="666.47" width="36" height="18" rx="6" ry="6" transform="translate(-598.48 275.77) rotate(-60)"/><rect class="cls-1" x="170.53" y="594" width="36" height="18" rx="6" ry="6" transform="translate(-420.24 -112.95) rotate(-30)"/></g></svg>