<svg id="Layer_1" data-name="Layer 1" xmlns="http://www.w3.org/2000/svg" viewBox="0 0 396 180"><defs><style>.cls-1{fill:#0071bc;}.cls-10,.cls-2{fill:#4d4d4d;}.cls-3{font-size:40px;fill:#fff;font-family:MyriadPro-Regular, Myriad Pro;}.cls-4{letter-spacing:0.02em;}.cls-5{letter-spacing:0.03em;}.cls-6{letter-spacing:0em;}.cls-7{letter-spacing:0em;}.cls-8{letter-spacing:-0.01em;}.cls-9{letter-spacing:0em;}.cls-10{stroke:#0071bc;stroke-miterlimit:10;stroke-width:2px;}</style></defs><title>profits_safety</title><path class="cls-1" d="M753,621" transform="translate(-771 -450)"/><polyline class="cls-2" points="72 0 72 36 216 36 216 108 72 108 72 144 0 72 72 0"/><polygon class="cls-1" points="216 36 180 72 180 144 216 108 216 36"/><polygon class="cls-2" points="396 108 324 180 324 144 180 144 180 72 324 72 324 36 396 108"/><text class="cls-3" transform="translate(196.33 119.33)">SAF<tspan class="cls-4" x="63.68" y="0">E</tspan><tspan class="cls-5" x="84" y="0">T</tspan><tspan class="cls-6" x="105" y="0">Y</tspan></text><text class="cls-3" transform="translate(35 84.67)">P<tspan class="cls-7" x="21.28" y="0">R</tspan><tspan x="42.92" y="0">OFI</tspan><tspan class="cls-8" x="99.52" y="0">T</tspan><tspan class="cls-9" x="119.16" y="0">S</tspan></text><line class="cls-10" x1="180" y1="72" x2="180" y2="144"/></svg>