<svg xmlns="http://www.w3.org/2000/svg" viewBox="0 0 576 306"><defs><style>.cls-1{fill:#4d4d4d;}.cls-2{fill:#fff;}.cls-3{fill:#0071bc;}</style></defs><title>scales-3</title><g id="Layer_1" data-name="Layer 1"><path class="cls-1" d="M714.1,513h11.8a14.1,14.1,0,0,1,13.94,12L753.5,631.75A14.1,14.1,0,0,1,739.56,648H700.44a14.1,14.1,0,0,1-13.94-16.25L700.16,525A14.1,14.1,0,0,1,714.1,513Z" transform="translate(-432 -342)"/><path d="M927,594" transform="translate(-432 -342)"/><rect class="cls-1" x="81" y="190" width="414" height="18" rx="9" ry="9"/><rect class="cls-1" x="90" y="171" width="18" height="27"/><rect class="cls-1" x="468" y="171" width="18" height="27"/><circle class="cls-2" cx="288" cy="198" r="10.13"/><path class="cls-1" d="M576,72" transform="translate(-432 -342)"/><path class="cls-1" d="M436,477H622a4,4,0,0,1,2,7.49c-16.9,9.43-45.58,24.85-58.81,28.51-17.35,4.8-54.48,4.14-72,0-13.44-3.17-42.34-18.94-59.15-28.53A4,4,0,0,1,436,477Z" transform="translate(-432 -342)"/><path class="cls-1" d="M818,477h186a4,4,0,0,1,2,7.49c-16.9,9.43-45.58,24.85-58.81,28.51-17.35,4.8-54.48,4.14-72,0-13.44-3.17-42.34-18.94-59.15-28.53A4,4,0,0,1,818,477Z" transform="translate(-432 -342)"/></g><g id="Layer_2" data-name="Layer 2"><rect class="cls-3" x="459" y="63" width="36" height="63"/><rect class="cls-3" x="504" y="9" width="36" height="117"/><rect class="cls-3" x="414" y="36" width="36" height="90"/><rect class="cls-3" x="126" y="72" width="36" height="54"/><rect class="cls-3" x="36" width="36" height="126"/><rect class="cls-3" x="81" y="36" width="36" height="90"/></g></svg>